<svg width="274" height="274" viewBox="0 0 274 274" fill="none" xmlns="http://www.w3.org/2000/svg">
<g clip-path="url(#clip0_553_69)">
<rect x="40.3066" y="48.4959" width="199.383" height="181.33" fill="white"/>
<path fill-rule="evenodd" clip-rule="evenodd" d="M273.9 136.95L247.31 163.54C243.571 155.601 237.655 148.888 230.25 144.181C222.845 139.473 214.255 136.966 205.48 136.95C214.244 136.927 222.823 134.423 230.223 129.726C237.622 125.029 243.54 118.331 247.29 110.41L273.9 136.95Z" fill="#97A219"/>
<path fill-rule="evenodd" clip-rule="evenodd" d="M163.48 26.59C155.552 30.3315 148.849 36.247 144.15 43.6485C139.452 51.05 136.952 59.6333 136.94 68.4C136.918 59.6292 134.408 51.0446 129.701 43.6437C124.994 36.2427 118.284 30.3292 110.35 26.59L136.94 0L163.48 26.59Z" fill="#97A219"/>
<path fill-rule="evenodd" clip-rule="evenodd" d="M251.76 22.1399V90.7499C251.75 97.5518 250.23 104.267 247.31 110.41L232.98 96.0799C226.401 89.5018 217.678 85.5058 208.4 84.8199C206.736 84.6894 205.066 84.6693 203.4 84.7599C202.78 84.7599 202.21 84.8199 201.65 84.8699C201.09 84.9199 200.35 84.9199 199.65 84.9699C194.534 85.1723 189.451 85.8926 184.48 87.1199C188.483 79.7246 189.994 71.236 188.791 62.9137C187.588 54.5913 183.733 46.8785 177.8 40.9199L163.48 26.5899C169.642 23.6626 176.378 22.1426 183.2 22.1399H251.76Z" fill="#97A219"/>
<path fill-rule="evenodd" clip-rule="evenodd" d="M251.76 183.2V251.75H183.21C176.389 251.77 169.649 250.27 163.48 247.36L177.81 233.02C183.548 227.249 187.344 219.832 188.671 211.803C189.997 203.773 188.787 195.53 185.21 188.22C186.622 187.494 187.987 186.683 189.3 185.79C196.525 189.046 204.568 190.032 212.366 188.618C220.164 187.204 227.349 183.456 232.97 177.87L247.3 163.54C250.237 169.678 251.761 176.396 251.76 183.2Z" fill="#97A219"/>
<path fill-rule="evenodd" clip-rule="evenodd" d="M110.36 247.36C104.216 250.273 97.4986 251.773 90.6997 251.75H22.1497V183.2C22.1258 176.401 23.6258 169.683 26.5397 163.54L40.8797 177.87C43.9113 180.955 47.4664 183.478 51.3797 185.32C56.3797 189.05 67.6797 192.62 82.6797 192.82C84.0797 192.82 85.4697 192.77 86.8197 192.67C84.4224 199.583 84.0146 207.031 85.6429 214.165C87.2712 221.298 90.8701 227.832 96.0297 233.02L110.36 247.36Z" fill="#97A219"/>
<path fill-rule="evenodd" clip-rule="evenodd" d="M163.48 247.36L136.94 273.9L110.35 247.36C118.28 243.616 124.987 237.701 129.693 230.301C134.399 222.902 136.912 214.32 136.94 205.55C136.95 235.25 147.82 239.91 163.48 247.36Z" fill="#97A219"/>
<path fill-rule="evenodd" clip-rule="evenodd" d="M96.0302 40.9199C90.4554 46.514 86.7068 53.6662 85.2787 61.4335C83.8505 69.2009 84.8099 77.2187 88.0302 84.4299C86.0231 85.1947 84.0859 86.1315 82.2402 87.2299C75.2227 84.5544 67.5811 83.9663 60.237 85.5367C52.8928 87.107 46.1599 90.7686 40.8502 96.0799L26.5102 110.41C23.6091 104.262 22.1097 97.5474 22.1202 90.7499V22.1399H90.6702C97.4735 22.1371 104.191 23.6576 110.33 26.5899L96.0302 40.9199Z" fill="#97A219"/>
<path fill-rule="evenodd" clip-rule="evenodd" d="M68.35 136.95C59.5786 136.97 50.9931 139.479 43.5917 144.186C36.1903 148.893 30.2772 155.605 26.54 163.54L0 136.95L26.54 110.41C30.2902 118.331 36.2078 125.029 43.6073 129.726C51.0068 134.423 59.5856 136.927 68.35 136.95Z" fill="#97A219"/>
<path fill-rule="evenodd" clip-rule="evenodd" d="M102.18 160.23C102.18 168.61 93.9599 172.8 85.0599 172.8C80.8241 172.721 76.6081 172.202 72.4799 171.25C59.8599 168.51 51.4799 185.32 51.4799 185.32C47.5666 183.478 44.0115 180.955 40.9799 177.87L26.6399 163.54C30.3771 155.605 36.2902 148.893 43.6916 144.186C51.093 139.479 59.6785 136.97 68.4499 136.95C59.6855 136.928 51.1067 134.423 43.7072 129.726C36.3077 125.029 30.3901 118.332 26.6399 110.41L40.9799 96.08C46.2896 90.7688 53.0225 87.1071 60.3667 85.5368C67.7108 83.9665 75.3525 84.5546 82.3699 87.2301C71.9099 93.2301 65.1899 103.16 65.1899 116.23C65.1899 130.23 76.1899 138.63 87.5899 144.79C97.4799 150.09 102.18 153.97 102.18 160.23Z" fill="#005226"/>
<path fill-rule="evenodd" clip-rule="evenodd" d="M185.22 188.22C188.797 195.53 190.007 203.773 188.68 211.803C187.354 219.832 183.558 227.249 177.82 233.02L163.48 247.36C147.81 239.91 136.94 235.25 136.94 205.55C136.912 214.32 134.399 222.902 129.693 230.302C124.987 237.701 118.28 243.616 110.35 247.36L96.0298 233.02C90.8702 227.832 87.2713 221.299 85.643 214.165C84.0147 207.031 84.4224 199.583 86.8198 192.67C108.96 191.32 126.66 179.01 126.66 156.19C126.66 143.19 118.43 134.41 105.24 127.48C96.0297 122.36 89.4598 118.48 89.4598 112.22C89.4598 106.22 95.0998 100.89 105.86 100.89C108.793 100.866 111.722 101.141 114.6 101.71C125.72 103.89 133.28 86.2501 133.28 86.2501C128.62 83.8101 120.86 80.9201 107.82 80.9201C101.074 80.8722 94.3764 82.0618 88.0598 84.4301C84.8394 77.2189 83.8801 69.2011 85.3083 61.4337C86.7364 53.6664 90.485 46.5142 96.0598 40.9201L110.39 26.5901C118.324 30.3293 125.034 36.2428 129.741 43.6438C134.447 51.0447 136.958 59.6293 136.98 68.4001C136.988 59.6377 139.482 51.0574 144.173 43.6563C148.864 36.2553 155.559 30.3373 163.48 26.5901L177.81 40.9201C183.741 46.8799 187.594 54.5932 188.795 62.9156C189.997 71.2379 188.484 79.7259 184.48 87.1201C179.006 88.371 173.695 90.2467 168.65 92.7101C164.449 94.7513 160.477 97.2318 156.8 100.11C142.31 111.54 130.8 132.34 130.8 156.19C130.8 176.84 142.28 192.93 165.8 192.93C166.73 192.93 167.67 192.93 168.6 192.88C174.405 192.508 180.067 190.92 185.22 188.22Z" fill="#005226"/>
<path fill-rule="evenodd" clip-rule="evenodd" d="M247.31 163.54L232.98 177.87C227.362 183.461 220.179 187.215 212.381 188.634C204.583 190.054 196.538 189.072 189.31 185.82C195.034 181.83 199.705 176.511 202.922 170.319C206.139 164.127 207.806 157.248 207.78 150.27C207.78 132.84 196.45 120.94 181.03 120.94C176.799 120.923 172.604 121.714 168.67 123.27C165.271 124.605 162.136 126.531 159.41 128.96L159.1 128.86C161.26 123.709 164.527 119.097 168.67 115.35C175.29 109.35 184.5 105.11 196.14 103.97C205.81 103.09 208.4 84.8301 208.4 84.8301C217.681 85.5214 226.404 89.5246 232.98 96.1101L247.31 110.44C243.554 118.359 237.631 125.052 230.228 129.744C222.825 134.436 214.244 136.934 205.48 136.95C214.255 136.966 222.844 139.474 230.25 144.181C237.655 148.888 243.571 155.602 247.31 163.54Z" fill="#005226"/>
<path fill-rule="evenodd" clip-rule="evenodd" d="M183.72 152.68C183.72 161.89 178.5 173.53 168.67 174.92C168.009 175.029 167.34 175.082 166.67 175.08H166.48C158.26 175.08 153.6 167.84 153.6 158.78C153.556 156.895 153.66 155.009 153.91 153.14C154.149 151.269 154.75 149.462 155.68 147.82C158.53 142.82 163.18 139.08 168.68 138.3C169.399 138.2 170.124 138.15 170.85 138.15C178.6 138.14 183.72 143.47 183.72 152.68Z" fill="#005226"/>
</g>
<defs>
<clipPath id="clip0_553_69">
<rect width="274" height="274" fill="white"/>
</clipPath>
</defs>
</svg>
