<?xml version="1.0" encoding="UTF-8"?>
<svg xmlns="http://www.w3.org/2000/svg" width="180" height="90" viewBox="0 0 180 90" fill="none">
  <path d="M54.7483 27.5519C53.4299 29.0964 51.3204 30.3395 49.2108 30.1511C48.9472 28.0416 49.9642 25.8191 51.1697 24.4253C52.4881 22.8055 54.786 21.6754 56.6694 21.6001C56.8955 23.7849 56.0291 25.9321 54.7483 27.5519ZM56.6694 30.6032C53.6182 30.4148 51.019 32.336 49.5499 32.336C48.0808 32.336 45.8582 30.6785 43.4474 30.7162C40.3208 30.7538 37.3826 32.5243 35.7628 35.3872C32.4855 41.0377 34.8964 49.438 38.0983 54.0714C39.6427 56.3692 41.5262 58.8554 43.9748 58.7801C46.3103 58.7047 47.2144 57.2733 50.0396 57.2733C52.8648 57.2733 53.6935 58.7801 56.1421 58.7424C58.7036 58.7047 60.2857 56.4446 61.8679 54.1844C63.6383 51.5852 64.3541 49.0613 64.4294 48.9483C64.3917 48.9106 59.4947 47.0271 59.457 41.4144C59.4193 36.7056 63.2993 34.4831 63.4877 34.3325C61.3028 31.0929 57.8749 30.7162 56.6694 30.6408M74.2989 24.1993V58.4411H79.6103V46.7258H86.9559C93.6611 46.7258 98.4075 42.1301 98.4075 35.4249C98.4075 28.7197 93.7741 24.1616 87.1442 24.1616H74.2989V24.1993ZM79.648 28.682H85.7881C90.3838 28.682 93.0207 31.1305 93.0207 35.4625C93.0207 39.7946 90.3838 42.2808 85.7504 42.2808H79.648V28.682ZM108.164 58.7424C111.517 58.7424 114.605 57.0473 115.999 54.3727H116.112V58.4787H121.047V41.4144C121.047 36.4796 117.092 33.2777 111.027 33.2777C104.962 33.2777 101.195 36.5173 101.044 40.9623H105.828C106.205 38.8528 108.164 37.459 110.876 37.459C113.588 37.459 115.962 38.9658 115.962 41.7534V43.6369L109.332 44.0136C103.154 44.3903 99.8012 46.9141 99.8012 51.3215C99.8012 55.7288 103.267 58.7047 108.202 58.7047L108.164 58.7424ZM109.558 54.6741C106.732 54.6741 104.924 53.318 104.924 51.2085C104.924 49.099 106.657 47.8182 109.972 47.5922L115.886 47.2155V49.1366C115.886 52.3386 113.174 54.6364 109.558 54.6364V54.6741ZM127.601 67.7831C132.8 67.7831 135.211 65.8243 137.358 59.7972L146.7 33.6167H141.313L135.06 53.8454H134.947L128.694 33.6167H123.119L132.122 58.5541L131.632 60.0609C130.803 62.6224 129.485 63.6018 127.149 63.6018C124.814 63.6018 125.906 63.5641 125.605 63.5265V67.6325C125.906 67.7078 127.225 67.7455 127.639 67.7455L127.601 67.7831Z" fill="black"></path>
</svg>
