<?xml version="1.0" encoding="UTF-8"?>
<svg xmlns="http://www.w3.org/2000/svg" width="180" height="90" viewBox="0 0 180 90" fill="none">
  <path d="M86.9573 44.7421V57.5073H82.8684V25.8933H93.6391C96.3318 25.8933 98.7253 26.7909 100.62 28.586C102.515 30.3811 103.512 32.6749 103.512 35.2678C103.512 37.9605 102.515 40.1545 100.62 41.9496C98.7253 43.7448 96.4315 44.6423 93.6391 44.6423L86.9573 44.7421ZM86.9573 29.7827V40.8526H93.7389C95.3345 40.8526 96.7307 40.354 97.728 39.257C98.825 38.16 99.3237 36.8635 99.3237 35.3675C99.3237 33.8716 98.825 32.5751 97.728 31.5779C96.631 30.4808 95.3345 29.8825 93.7389 29.8825L86.9573 29.7827Z" fill="#5F6368"></path>
  <path d="M112.888 35.1682C115.88 35.1682 118.274 35.966 119.969 37.5617C121.664 39.1574 122.562 41.3514 122.562 44.1438V57.5075H118.673V54.5156H118.473C116.778 57.0088 114.584 58.2056 111.791 58.2056C109.398 58.2056 107.403 57.5075 105.808 56.1113C104.212 54.7151 103.414 52.9199 103.414 50.8256C103.414 48.6316 104.212 46.8365 105.907 45.54C107.603 44.2435 109.896 43.5454 112.689 43.5454C115.082 43.5454 117.077 43.9443 118.673 44.8419V43.9443C118.673 42.5481 118.074 41.3514 116.977 40.3541C115.88 39.3568 114.584 38.8582 113.088 38.8582C110.794 38.8582 108.999 39.8555 107.702 41.7503L104.112 39.4566C106.206 36.5644 109.099 35.1682 112.888 35.1682ZM107.702 50.8256C107.702 51.9226 108.101 52.7205 108.999 53.5183C109.896 54.3161 110.993 54.6153 112.19 54.6153C113.886 54.6153 115.381 54.017 116.778 52.7205C118.074 51.424 118.772 49.9281 118.772 48.2327C117.476 47.2354 115.78 46.7368 113.487 46.7368C111.791 46.7368 110.495 47.1357 109.398 47.9335C108.301 48.7313 107.702 49.7286 107.702 50.8256Z" fill="#5F6368"></path>
  <path d="M144.9 35.8662L131.337 66.9816H127.148L132.134 56.1112L123.259 35.8662H127.647L134.129 51.4239H134.229L140.512 35.8662H144.9Z" fill="#5F6368"></path>
  <path d="M70.605 41.9497C70.605 40.6533 70.5052 39.4565 70.3058 38.2598H53.1524V45.2408H62.9258C62.5269 47.5345 61.2304 49.4294 59.3356 50.7259V55.3134H65.2196C68.6104 52.1221 70.605 47.4348 70.605 41.9497Z" fill="#4285F4"></path>
  <path d="M53.1492 59.7015C58.036 59.7015 62.1249 58.1058 65.2164 55.3134L59.3324 50.7259C57.7368 51.8229 55.6425 52.4213 53.1492 52.4213C48.462 52.4213 44.3731 49.23 42.9769 44.9417H36.9932V49.6289C39.985 55.6126 46.0685 59.7015 53.1492 59.7015Z" fill="#34A853"></path>
  <path d="M42.9786 45.0413C42.5797 43.9443 42.3802 42.7476 42.3802 41.5508C42.3802 40.3541 42.5797 39.1573 42.9786 38.0603V33.373H36.9948C35.7981 35.8663 35.1 38.5589 35.1 41.5508C35.1 44.5427 35.7981 47.2353 36.9948 49.7286L42.9786 45.0413Z" fill="#FBBC04"></path>
  <path d="M53.1514 30.5806C55.8441 30.5806 58.2376 31.4782 60.1325 33.2733L65.3184 28.0874C62.127 25.1953 58.0382 23.4001 53.1514 23.4001C46.0707 23.4001 39.8875 27.489 36.8956 33.373L42.8794 38.0603C44.475 33.7719 48.4642 30.5806 53.1514 30.5806Z" fill="#EA4335"></path>
</svg>
