<?xml version="1.0" encoding="UTF-8"?>
<svg xmlns="http://www.w3.org/2000/svg" width="180" height="90" viewBox="0 0 180 90" fill="none">
  <path d="M102.398 22.3574H77.1975V67.6425H102.398V22.3574Z" fill="#FF5F00"></path>
  <path d="M78.7977 45C78.7937 40.6387 79.782 36.3336 81.6878 32.4108C83.5935 28.4879 86.3668 25.05 89.7976 22.3574C85.549 19.0179 80.4466 16.9411 75.0735 16.3644C69.7004 15.7877 64.2734 16.7344 59.4129 19.0962C54.5524 21.458 50.4544 25.1397 47.5874 29.7204C44.7204 34.3011 43.2 39.596 43.2 45C43.2 50.4039 44.7204 55.6988 47.5874 60.2795C50.4544 64.8602 54.5524 68.5419 59.4129 70.9037C64.2734 73.2655 69.7004 74.2122 75.0735 73.6355C80.4466 73.0588 85.549 70.982 89.7976 67.6425C86.3668 64.9499 83.5936 61.512 81.6878 57.5891C79.782 53.6662 78.7937 49.3612 78.7977 45Z" fill="#EB001B"></path>
  <path d="M136.394 44.9999C136.394 50.4038 134.874 55.6987 132.007 60.2794C129.14 64.8601 125.042 68.5418 120.182 70.9037C115.321 73.2655 109.894 74.2122 104.521 73.6355C99.1484 73.0588 94.0461 70.982 89.7976 67.6425C93.2254 64.9471 95.9965 61.5087 97.9019 57.5865C99.8074 53.6642 100.797 49.3605 100.797 44.9999C100.797 40.6394 99.8074 36.3357 97.9019 32.4134C95.9965 28.4912 93.2254 25.0527 89.7976 22.3574C94.0461 19.0179 99.1484 16.9411 104.521 16.3644C109.894 15.7877 115.321 16.7344 120.182 19.0962C125.042 21.4581 129.14 25.1397 132.007 29.7205C134.874 34.3012 136.394 39.5961 136.394 44.9999Z" fill="#F79E1B"></path>
  <path d="M133.646 62.8461V61.919H134.02V61.7301H133.068V61.919H133.442V62.8461H133.646ZM135.494 62.8461V61.7283H135.203L134.867 62.4971L134.531 61.7283H134.239V62.8461H134.445V62.0029L134.76 62.7299H134.974L135.289 62.0011V62.8461H135.494Z" fill="#F79E1B"></path>
</svg>
