<?xml version="1.0" encoding="UTF-8"?>
<svg xmlns="http://www.w3.org/2000/svg" width="180" height="90" viewBox="0 0 180 90" fill="none">
  <path d="M106.39 27.8999C98.7 27.8999 91.8281 31.8867 91.8281 39.2528C91.8281 47.7003 104.016 48.2836 104.016 52.5274C104.016 54.3143 101.969 55.9138 98.4721 55.9138C93.5098 55.9138 89.8011 53.6789 89.8011 53.6789L88.2141 61.1121C88.2141 61.1121 92.4866 62.9999 98.1589 62.9999C106.566 62.9999 113.182 58.8173 113.182 51.3252C113.182 42.3991 100.944 41.833 100.944 37.8941C100.944 36.4942 102.624 34.9605 106.111 34.9605C110.044 34.9605 113.254 36.586 113.254 36.586L114.807 29.4068C114.807 29.4068 111.315 27.8999 106.39 27.8999ZM36.0359 28.4417L35.8497 29.5254C35.8497 29.5254 39.0848 30.1176 41.9985 31.2991C45.7502 32.6537 46.0174 33.4424 46.6493 35.8918L53.5344 62.4412H62.764L76.9829 28.4417H67.7745L58.6381 51.5581L54.9098 31.9636C54.5678 29.7211 52.836 28.4417 50.7161 28.4417H36.0359ZM80.6857 28.4417L73.462 62.4412H82.243L89.4414 28.4417H80.6857ZM129.66 28.4417C127.543 28.4417 126.421 29.5758 125.598 31.5572L112.733 62.4412H121.942L123.723 57.2938H134.942L136.025 62.4412H144.15L137.062 28.4417H129.66ZM130.858 37.6273L133.588 50.3856H126.275L130.858 37.6273Z" fill="#1434CB"></path>
</svg>
