<svg width="190" height="66" viewBox="0 0 190 66" fill="none" xmlns="http://www.w3.org/2000/svg">
<path d="M30.3859 21.7654H33.0821V36.238H30.3859V35.0178C29.5918 36.0234 28.4621 36.527 26.9997 36.527C25.5373 36.527 24.3903 35.9991 23.3937 34.9448C22.3971 33.8905 21.8995 32.5987 21.8995 31.0681C21.8995 29.5374 22.3971 28.2457 23.3937 27.1914C24.3903 26.1371 25.5923 25.6092 26.9997 25.6092C28.4071 25.6092 29.5918 26.1128 30.3859 27.1184V21.764V21.7654ZM25.4202 33.1681C25.9713 33.7131 26.6641 33.9849 27.5002 33.9849C28.3362 33.9849 29.0262 33.7131 29.5701 33.1681C30.1139 32.6231 30.3859 31.925 30.3859 31.0695C30.3859 30.2141 30.1139 29.516 29.5701 28.9709C29.0262 28.4259 28.3362 28.1541 27.5002 28.1541C26.6641 28.1541 25.9698 28.4259 25.4202 28.9709C24.8705 29.516 24.5942 30.2155 24.5942 31.0695C24.5942 31.9235 24.8691 32.6231 25.4202 33.1681Z" fill="#1D1C1A"/>
<path d="M36.6997 24.6593C36.2542 24.6593 35.8665 24.4977 35.5396 24.173C35.2113 23.8497 35.0478 23.4663 35.0478 23.0257C35.0478 22.5851 35.2113 22.1988 35.5396 21.8684C35.8665 21.5379 36.2542 21.372 36.6997 21.372C37.1452 21.372 37.5531 21.5379 37.8814 21.8684C38.2083 22.1988 38.3732 22.5851 38.3732 23.0257C38.3732 23.4663 38.2098 23.8497 37.8814 24.173C37.5531 24.4977 37.1596 24.6593 36.6997 24.6593ZM35.3617 36.238V25.8996H38.0579V36.238H35.3617Z" fill="#1D1C1A"/>
<path d="M46.1494 25.6106C47.2921 25.6106 48.2367 25.9897 48.9816 26.7479C49.7265 27.5061 50.0997 28.5532 50.0997 29.8908V36.238H47.4035V30.2212C47.4035 29.5317 47.2155 29.0053 46.8394 28.6391C46.4633 28.2743 45.9614 28.0912 45.3336 28.0912C44.6364 28.0912 44.0795 28.3057 43.6615 28.732C43.2435 29.1598 43.0337 29.8006 43.0337 30.6547V36.2366H40.3375V25.8982H43.0337V27.0555C43.689 26.0913 44.7275 25.6078 46.1494 25.6078V25.6106Z" fill="#1D1C1A"/>
<path d="M54.4695 32.1653C54.8311 33.4613 55.8147 34.1094 57.4173 34.1094C58.4487 34.1094 59.2298 33.7646 59.7592 33.0751L61.9332 34.3154C60.9019 35.7902 59.3831 36.527 57.3754 36.527C55.6469 36.527 54.2597 36.0105 53.2154 34.9763C52.1696 33.942 51.6474 32.6402 51.6474 31.0681C51.6474 29.4959 52.1623 28.2113 53.1951 27.1713C54.2264 26.1313 55.55 25.6106 57.1671 25.6106C58.7004 25.6106 59.9646 26.1342 60.9612 27.1814C61.9578 28.2285 62.4554 29.5245 62.4554 31.0681C62.4554 31.4128 62.4207 31.7776 62.3512 32.1639H54.4695V32.1653ZM54.4275 30.0968H59.7592C59.6058 29.3944 59.2891 28.8708 58.8074 28.526C58.3272 28.1813 57.779 28.0096 57.1657 28.0096C56.441 28.0096 55.8407 28.1927 55.3677 28.5575C54.8933 28.9223 54.5808 29.4359 54.4275 30.0982V30.0968Z" fill="#1D1C1A"/>
<path d="M64.1492 36.238V21.1445H66.8454V36.238H64.1492Z" fill="#1D1C1A"/>
<path d="M74.0994 36.527C72.5242 36.527 71.2108 36.0034 70.1592 34.9562C69.1062 33.9091 68.5811 32.613 68.5811 31.0695C68.5811 29.526 69.1076 28.2299 70.1592 27.1828C71.2108 26.1356 72.5242 25.6121 74.0994 25.6121C75.1162 25.6121 76.0434 25.8538 76.8795 26.3359C77.7155 26.818 78.3491 27.466 78.7816 28.28L76.4614 29.6233C76.2517 29.1955 75.9349 28.8579 75.5097 28.6104C75.0844 28.363 74.6071 28.2385 74.0777 28.2385C73.2691 28.2385 72.6008 28.5046 72.0714 29.0339C71.542 29.5646 71.2773 30.2441 71.2773 31.0709C71.2773 31.8978 71.542 32.5558 72.0714 33.0865C72.6008 33.6173 73.2706 33.8819 74.0777 33.8819C74.6216 33.8819 75.1047 33.7618 75.5299 33.52C75.9552 33.2797 76.272 32.9449 76.4817 32.5172L78.8235 33.8404C78.3635 34.6544 77.7155 35.3053 76.8795 35.7945C76.0434 36.2838 75.1162 36.5284 74.0994 36.5284V36.527Z" fill="#1D1C1A"/>
<path d="M88.7752 34.9462C87.7019 36.0005 86.3914 36.5284 84.8451 36.5284C83.2989 36.5284 81.9913 36.0005 80.9252 34.9462C79.8592 33.8919 79.3254 32.6002 79.3254 31.0695C79.3254 29.5389 79.8592 28.2471 80.9252 27.1928C81.9913 26.1385 83.2974 25.6106 84.8451 25.6106C86.3929 25.6106 87.7019 26.1385 88.7752 27.1928C89.8484 28.2471 90.3851 29.5389 90.3851 31.0695C90.3851 32.6002 89.8484 33.8919 88.7752 34.9462ZM82.8288 33.1166C83.3654 33.6545 84.038 33.9234 84.8466 33.9234C85.6552 33.9234 86.3307 33.6545 86.8745 33.1166C87.4184 32.5787 87.6903 31.8964 87.6903 31.0695C87.6903 30.2427 87.4184 29.5603 86.8745 29.0224C86.3307 28.4846 85.6552 28.2156 84.8466 28.2156C84.038 28.2156 83.3654 28.4846 82.8288 29.0224C82.2921 29.5603 82.0245 30.2427 82.0245 31.0695C82.0245 31.8964 82.2921 32.5787 82.8288 33.1166Z" fill="#1D1C1A"/>
<path d="M93.9824 35.9905C93.6338 36.3353 93.2158 36.5069 92.7284 36.5069C92.2409 36.5069 91.8229 36.3338 91.4743 35.9905C91.1257 35.6458 90.9521 35.2323 90.9521 34.7502C90.9521 34.2682 91.1257 33.8547 91.4743 33.51C91.8229 33.1652 92.2409 32.9936 92.7284 32.9936C93.2158 32.9936 93.6338 33.1667 93.9824 33.51C94.331 33.8547 94.5046 34.2682 94.5046 34.7502C94.5046 35.2323 94.3296 35.6458 93.9824 35.9905Z" fill="#6F4B9D"/>
<path d="M9.90832 40.5782C7.34229 40.5782 4.90501 39.6169 3.04486 37.8702C1.17169 36.1107 0.0926284 33.7474 0.00584077 31.2154C-0.0852863 28.5604 0.892521 26.0469 2.75556 24.1415C4.62005 22.2346 7.12388 21.1846 9.80562 21.1846V23.854C7.86157 23.854 6.04771 24.615 4.69672 25.9969C3.34572 27.3788 2.6384 29.1998 2.70494 31.1253C2.83223 34.8661 6.06507 37.9088 9.90976 37.9088C13.7545 37.9088 16.9179 34.7989 16.9179 30.978V19.5223H14.7974C14.4893 19.5223 14.1985 19.6411 13.9816 19.8571C13.7631 20.0731 13.6431 20.3592 13.6445 20.6653L13.6561 30.8864C13.6561 31.9335 13.2149 32.9435 12.444 33.6602C11.6629 34.3869 10.6417 34.7502 9.5684 34.6844C7.63882 34.5657 6.09255 33.0379 5.97394 31.1296C5.9074 30.0681 6.2748 29.0582 7.00961 28.2857C7.73428 27.5232 8.75549 27.0869 9.81285 27.0869V29.7563C9.49318 29.7563 9.19666 29.8836 8.97824 30.1139C8.75983 30.3442 8.64989 30.6461 8.67014 30.9637C8.70486 31.5216 9.17351 31.985 9.73763 32.0194C10.0587 32.0394 10.3654 31.9307 10.5983 31.7147C10.8312 31.4987 10.9599 31.204 10.9599 30.8893L10.9483 20.6696C10.9483 19.6511 11.3475 18.6926 12.0751 17.9717C12.8027 17.2507 13.7718 16.8544 14.8017 16.8544H19.6228V30.9794C19.6228 36.2738 15.2675 40.5811 9.9141 40.5811L9.90832 40.5782Z" fill="#743DBC"/>
<path d="M108.664 48.8895C105.716 51.8049 101.798 53.2641 97.8864 53.2641C93.9752 53.2641 90.0567 51.8064 87.1088 48.8895C86.2742 48.0641 85.525 47.1128 84.8813 46.0614C84.2463 45.0257 83.7415 43.9313 83.3842 42.8041L83.0935 41.8814H77.1644L77.5955 43.5337C78.0555 45.2903 78.7584 46.9855 79.6798 48.5762C80.5911 50.1498 81.7193 51.609 83.0371 52.9122C86.9396 56.7703 92.0384 58.7844 97.1835 58.9504C102.378 59.1178 107.623 57.4154 111.742 53.842H111.744C111.8 53.7948 111.965 53.6389 112.185 53.4314C110.923 51.6805 109.998 49.961 109.309 48.2329C109.059 48.499 108.838 48.7179 108.664 48.8895Z" fill="url(#paint0_linear_25744_2855)"/>
<path d="M124.918 55.6359C124.918 55.2296 124.984 54.8376 125.103 54.4729C125.081 54.4729 125.058 54.4743 125.037 54.4743C123.373 54.4743 122.025 53.0853 122.025 51.3701C122.025 50.3515 122.501 49.4474 123.236 48.8824C122.821 48.4718 122.43 48.0341 122.065 47.5749C121.572 46.9526 121.127 46.2874 120.733 45.5879C120.051 44.3748 119.54 43.0816 119.226 41.7426C118.904 40.3765 118.866 39.1949 118.827 37.9875C118.811 37.4654 118.794 36.9361 118.743 36.3953C118.396 33.9678 117.8 31.5974 116.754 29.3701C116.343 28.5303 115.872 27.7207 115.348 26.9425C114.754 26.0641 114.09 25.2287 113.356 24.439C112.639 23.6666 111.861 22.9484 111.025 22.2861C110.014 21.4879 108.956 20.7969 107.87 20.2204C106.746 19.6253 105.577 19.1347 104.378 18.7556L100.235 17.4452L111.717 4.49756L112.6 0H80.6446V5.69062H102.952L90.3388 19.8356L90.8291 20.5952L90.8971 20.7054L92.9526 24.2259L93.9535 23.967C96.573 23.2889 99.2996 23.3032 101.847 23.9713C104.387 24.635 106.752 25.9339 108.664 27.8251C109.801 28.9495 110.744 30.2541 111.472 31.6889C112.196 33.1166 112.685 34.6458 112.914 36.2194C113.057 37.2079 113.106 38.1706 113.152 39.1419L113.164 39.368H113.168C113.358 41.5567 113.682 43.5952 114.376 45.5536C114.804 46.6837 115.337 47.7809 115.963 48.828C116.488 49.7078 117.085 50.5504 117.746 51.3515C118.193 51.8922 118.669 52.4129 119.173 52.9107C120.965 54.6831 123.011 56.0665 125.2 57.0607C125.018 56.6215 124.916 56.1394 124.916 55.6316L124.918 55.6359Z" fill="url(#paint1_linear_25744_2855)"/>
<path d="M154.97 38.3595C154.97 35.6057 154.426 32.9292 153.394 30.4701C152.369 28.0182 150.84 25.7508 148.873 23.8039C145.968 20.9314 142.39 19.0832 138.617 18.2635C134.696 17.4109 130.578 17.6569 126.798 19.0031L122.081 20.6839L125.034 5.69348H149.499V0.00143052H120.265L116.476 19.518C118.823 21.7253 120.519 24.1157 121.749 26.6234C121.859 26.8495 121.967 27.0769 122.07 27.3044C122.239 27.6649 122.4 28.0297 122.553 28.3973L122.593 28.496C122.844 28.2299 123.068 28.0068 123.247 27.8279C126.191 24.9168 130.111 23.462 134.025 23.462V23.4734C137.946 23.4734 141.868 24.9254 144.802 27.8294C145.446 28.466 146.025 29.1569 146.537 29.8922C148.042 30.0639 149.213 31.3785 149.213 32.9764C149.213 33.5944 149.036 34.1695 148.734 34.653C149.049 35.8575 149.211 37.1006 149.211 38.3609H154.965L154.97 38.3595Z" fill="url(#paint2_linear_25744_2855)"/>
<path d="M146.117 47.8309C146.197 47.6707 146.232 47.4762 146.218 47.253C146.21 47.0928 146.151 46.934 146.043 46.7824L146.025 46.7609C145.857 46.595 145.651 46.4963 145.414 46.4705C145.209 46.4476 144.82 46.4362 144.227 46.4333C143.935 46.4319 143.696 46.4362 143.498 46.4476C143.466 46.4491 143.438 46.4505 143.415 46.4519C143.431 46.389 143.453 46.3031 143.483 46.1858C143.557 45.8983 143.655 45.5521 143.773 45.1573C143.895 44.7453 144.014 44.3333 144.128 43.9328C144.246 43.5179 144.347 43.1703 144.432 42.8842C144.526 42.5452 144.63 42.1904 144.745 41.8299C144.857 41.4723 144.98 41.0803 145.115 40.6554C145.245 40.2406 145.395 39.78 145.57 39.2464C145.741 38.73 145.934 38.1463 146.146 37.4954C146.438 36.5956 146.674 35.8589 146.846 35.3081C147.013 34.776 147.144 34.3383 147.237 34.0049C147.331 33.6673 147.384 33.4098 147.4 33.2167C147.416 33.0293 147.419 32.8391 147.409 32.6531L147.379 32.0866L147.141 31.9064C147.026 31.8048 146.943 31.7576 146.865 31.7447C146.83 31.7404 146.765 31.7347 146.597 31.7447L146.577 31.7476C146.148 31.8234 145.537 32.2211 144.708 32.9635C143.91 33.6788 142.873 34.746 141.627 36.135C141.13 36.6829 140.671 37.205 140.268 37.6857C139.873 38.1549 139.422 38.6999 138.927 39.3065C138.438 39.9058 137.875 40.6225 137.252 41.4379C136.628 42.2548 135.844 43.2876 134.923 44.5093C133.837 45.9341 132.992 47.0399 132.34 47.8882C131.528 48.9425 131.297 49.2314 131.245 49.2872C131.226 49.3087 131.2 49.3273 131.168 49.3459C131.155 49.353 131.094 49.3831 130.874 49.4474C130.704 49.4975 130.458 49.5633 130.145 49.6448L128.833 49.9853C127.924 50.2285 127.102 50.4331 126.39 50.5933C125.677 50.7535 125.196 50.8479 124.958 50.8765L124.94 50.8794C124.766 50.9209 124.699 50.9237 124.682 50.9237C124.678 50.9237 124.676 50.9237 124.676 50.9237C124.65 50.9166 124.601 50.8994 124.517 50.8551C124.245 50.6891 123.965 50.6734 123.703 50.8107L123.691 50.8164C123.509 50.9294 123.388 51.1097 123.331 51.3515C123.275 51.5889 123.302 51.8164 123.416 52.0324C123.532 52.2341 123.714 52.36 123.955 52.4086C124.174 52.453 124.378 52.4272 124.565 52.3328L124.627 52.3299L124.668 52.2999C124.78 52.2169 124.854 52.1554 124.873 52.0767C124.892 52.0538 124.906 52.0295 124.916 52.0081C124.922 51.9981 124.934 51.9852 124.948 51.9694L124.967 51.9494L124.973 51.9337C124.973 51.9337 124.987 51.9237 125.005 51.9151C125.031 51.9022 125.113 51.8693 125.358 51.7949C125.55 51.7363 125.842 51.659 126.23 51.566C126.619 51.4716 127.164 51.3314 127.841 51.1497C128.246 51.0639 128.632 50.9724 128.988 50.8779C129.34 50.785 129.648 50.7077 129.904 50.6462C130.047 50.6119 130.202 50.5761 130.365 50.5389L130.359 50.5475C130.309 50.6033 130.238 50.692 130.14 50.815L129.756 51.3014C129.6 51.5002 129.431 51.722 129.256 51.958C129.078 52.1969 128.897 52.4444 128.712 52.7004C128.528 52.9536 128.339 53.2054 128.148 53.45C127.954 53.6989 127.776 53.9293 127.613 54.1438C127.455 54.3513 127.305 54.5387 127.166 54.7003C127.027 54.862 126.927 54.9764 126.86 55.0494C126.687 55.2568 126.563 55.4227 126.487 55.5415C126.414 55.6602 126.361 55.7546 126.33 55.8276L126.318 55.8619C126.286 56.0235 126.301 56.188 126.359 56.3511C126.416 56.5142 126.509 56.653 126.635 56.7631C126.743 56.8604 126.832 56.9148 126.91 56.9362C126.986 56.9562 127.089 56.9534 127.238 56.9248C127.339 56.9019 127.425 56.8804 127.497 56.859C127.592 56.8304 127.686 56.7617 127.786 56.653L127.801 56.6344C127.844 56.5686 127.987 56.374 128.225 56.0522C128.463 55.7289 128.725 55.3569 129.001 54.9492C129.276 54.5415 129.534 54.1639 129.771 53.8162C130.008 53.4686 130.238 53.1325 130.461 52.8106C130.684 52.4873 130.902 52.1683 131.117 51.8536C131.327 51.5474 131.559 51.217 131.806 50.8765C132.085 50.4989 132.269 50.2585 132.367 50.1427C132.466 50.0254 132.525 49.9753 132.557 49.9553C132.693 49.9152 132.972 49.8408 133.385 49.7335C133.825 49.6205 134.339 49.4989 134.912 49.3702C135.486 49.2429 136.096 49.1113 136.725 48.9797C137.342 48.8509 137.916 48.7379 138.428 48.6435C138.7 48.5948 139.04 48.5319 139.437 48.4546C139.845 48.376 140.243 48.3016 140.628 48.2315C140.95 48.1728 141.332 48.1113 141.769 48.0469C141.75 48.117 141.729 48.1943 141.704 48.2758C141.662 48.426 141.617 48.5991 141.57 48.7908C141.523 48.9782 141.464 49.1799 141.393 49.3974C141.076 50.5403 140.784 51.6476 140.528 52.689C140.269 53.7376 140.035 54.7218 139.829 55.6144C139.623 56.5142 139.446 57.3439 139.304 58.0792C139.163 58.8088 139.056 59.4496 138.985 59.9775C138.946 60.1964 138.911 60.4739 138.879 60.8058C138.849 61.1262 138.813 61.4667 138.774 61.8157C138.735 62.1633 138.703 62.5067 138.68 62.8343C138.655 63.1719 138.642 63.4408 138.638 63.6454C138.607 64.0345 138.591 64.3435 138.588 64.5909C138.586 64.8427 138.591 65.0473 138.609 65.1989C138.627 65.3677 138.659 65.4936 138.706 65.5837C138.748 65.6653 138.8 65.7439 138.862 65.8169L138.878 65.8341C139.002 65.9442 139.126 66 139.248 66C139.28 66 139.31 65.9957 139.342 65.9886C139.523 65.9456 139.665 65.7811 139.777 65.4893C139.893 65.1817 139.897 64.9243 139.789 64.724C139.785 64.6768 139.785 64.4965 139.884 63.8299C139.974 63.2262 140.117 62.4194 140.311 61.4295C140.349 61.2149 140.396 60.956 140.454 60.6498L140.638 59.6828C140.702 59.3438 140.767 59.0005 140.83 58.6528C140.894 58.3052 140.952 57.9819 141.001 57.6858C141.344 55.7904 141.669 54.0966 141.967 52.6532C142.267 51.2055 142.575 49.8279 142.886 48.5562C142.938 48.3302 142.989 48.1371 143.036 47.9826C143.058 47.911 143.075 47.8581 143.087 47.8166C143.295 47.7809 143.477 47.7551 143.631 47.7408C143.812 47.7236 143.994 47.7051 144.175 47.6879C144.36 47.6693 144.496 47.6593 144.587 47.6536C144.999 47.6321 145.141 47.6378 145.189 47.6435C145.199 47.7551 145.244 47.861 145.323 47.9611C145.445 48.1156 145.583 48.1399 145.682 48.1356C145.816 48.1285 146.003 48.0698 146.122 47.8309H146.117ZM142.004 46.6651C141.983 46.6694 141.959 46.6736 141.93 46.6779C141.779 46.7023 141.603 46.738 141.412 46.7795C141.011 46.8496 140.6 46.9254 140.191 47.0041C139.792 47.0828 139.336 47.1815 138.836 47.2988C138.341 47.4147 137.762 47.562 137.116 47.7351C136.466 47.9096 135.695 48.1199 134.825 48.3617C134.297 48.519 133.83 48.6506 133.436 48.7536C133.364 48.7722 133.299 48.7894 133.244 48.8037C133.265 48.7751 133.289 48.7422 133.313 48.7078C133.536 48.4031 133.83 48.0112 134.214 47.5091C134.593 47.0141 135.026 46.4462 135.512 45.8068C135.998 45.1673 136.497 44.515 137.006 43.8484C137.514 43.186 138.024 42.5266 138.525 41.89C139.04 41.2334 139.475 40.6698 139.856 40.1648L139.882 40.1362C140.528 39.3208 141.166 38.5268 141.775 37.7772C142.381 37.0319 142.961 36.341 143.496 35.7244C144.03 35.1107 144.517 34.5743 144.943 34.1308C145.368 33.6888 145.715 33.3612 145.975 33.1581L145.984 33.1509C146.151 33.0007 146.317 32.8691 146.479 32.7561C146.538 32.716 146.584 32.686 146.619 32.6645C146.606 32.7604 146.573 32.9321 146.492 33.2396C146.412 33.5457 146.278 33.9663 146.093 34.487C145.906 35.0135 145.669 35.6844 145.384 36.4983C145.097 37.2594 144.828 38.0075 144.584 38.7185C144.35 39.4037 144.108 40.1204 143.868 40.8457C143.629 41.5681 143.396 42.292 143.177 42.9972C142.951 43.7211 142.718 44.4749 142.481 45.256C142.355 45.6523 142.248 46.0013 142.163 46.296C142.113 46.4662 142.083 46.5635 142.064 46.6193L141.998 46.6221L142.001 46.6636L142.004 46.6651Z" fill="url(#paint3_linear_25744_2855)"/>
<path d="M171.746 45.0414C172.372 44.4277 172.774 44.1159 172.952 44.1073L172.942 43.9213L172.872 43.8012C172.59 43.8169 172.203 44.0029 171.708 44.3605C170.626 44.5007 169.47 45.0085 168.239 45.8811C167.652 46.2645 167.25 46.5549 167.03 46.7538L166.901 46.698C166.097 45.7767 165.669 44.8469 165.618 43.907C165.6 43.5565 165.963 43.3091 166.709 43.1646C166.793 43.1603 166.836 43.1989 166.841 43.2819C166.857 43.5708 166.794 43.9685 166.654 44.4735C166.783 44.7153 166.956 44.8311 167.176 44.8183C167.257 44.7725 167.319 44.7482 167.361 44.7467C167.696 44.7296 167.94 44.2189 168.095 43.2161C168.062 42.6167 167.665 42.2648 166.906 42.1603C166.397 42.239 165.86 42.3921 165.297 42.6195C164.753 42.6482 164.467 43.1403 164.435 44.0958C164.441 44.1946 164.454 44.2961 164.473 44.4005C163.181 45.4892 162.399 46.0871 162.124 46.1959C162.187 45.595 162.185 45.1988 162.114 45.0114C161.777 44.3977 161.577 44.103 161.515 44.1259C161.369 43.7397 160.666 43.6324 159.407 43.8026L159.206 43.8598C158.969 43.9342 158.858 43.9871 158.869 44.0172C158.266 44.1946 157.815 44.4463 157.515 44.7725C157.459 44.824 157.394 44.8955 157.32 44.9871C157.019 45.2617 156.795 45.5593 156.649 45.8826C156.322 46.2645 155.904 46.6779 155.393 47.1243C154.583 47.8309 153.668 48.3402 152.648 48.6535L152.538 48.6592C152.419 48.6134 152.354 48.5662 152.341 48.5147L152.289 48.1285C152.242 47.8309 152.323 47.1886 152.531 46.2044L152.461 46.0986C152.457 46.0271 152.506 45.8783 152.61 45.6551C152.463 44.6681 151.975 44.1974 151.151 44.2403L150.775 44.2604C150.397 44.4563 150.217 44.5908 150.231 44.6623C149.797 44.7682 149.185 45.2832 148.398 46.2059L148.352 46.2087L148.349 46.1472C148.581 45.7824 148.672 45.4305 148.621 45.0915L148.599 44.9842C148.563 44.6967 148.34 44.5479 147.931 44.5379C147.827 44.5436 147.695 44.6237 147.536 44.7768C147.247 45.8082 146.898 46.728 146.492 47.5363C146.038 48.8037 145.793 49.8165 145.761 50.5747L145.764 50.6205C145.812 50.908 146.094 51.0897 146.61 51.1655C146.755 51.1168 146.82 51.0768 146.809 51.0467C146.921 50.9895 147.164 50.5675 147.541 49.7793C147.635 49.1942 147.749 48.8824 147.882 48.8438C148.329 48.0226 148.625 47.582 148.769 47.5219C149.019 47.1157 149.169 46.9097 149.223 46.9068C149.836 46.2516 150.439 45.6866 151.032 45.2102L151.236 45.1988C151.309 45.1945 151.353 45.2288 151.368 45.3003L151.437 45.7166C151.119 47.1944 150.977 48.057 151.012 48.303C151.042 48.4675 151.074 48.5748 151.108 48.6235C151.219 49.3215 151.842 49.6978 152.976 49.7521C153.493 49.6205 153.867 49.4775 154.1 49.3187C154.91 48.8094 155.593 48.2672 156.148 47.695C156.26 47.5806 156.37 47.4561 156.481 47.326C156.52 47.5677 156.588 47.8181 156.688 48.0784C156.828 48.3502 156.973 48.5963 157.12 48.8166C157.809 49.5461 158.603 49.7793 159.5 49.5132C159.653 49.4331 159.785 49.3745 159.899 49.3373C160.293 49.0469 160.848 48.4947 161.568 47.6793C161.93 47.5777 162.362 47.3474 162.866 46.9884C163.696 46.2502 164.305 45.6351 164.7 45.1373C164.97 45.7939 165.445 46.5549 166.126 47.4204L166.133 47.5448L166.077 47.6722C164.714 48.8223 163.82 49.6992 163.392 50.3015C162.793 50.8622 162.504 51.3128 162.523 51.6533L162.54 51.9637C162.572 52.5416 163.157 52.8835 164.293 52.9894C165.226 52.8049 166.022 52.41 166.68 51.8049C167.538 51.1998 168.063 50.4674 168.258 49.6076C168.221 48.9253 168.02 48.3145 167.655 47.7751L167.889 47.4519C169.642 46.3532 170.928 45.5493 171.749 45.04L171.746 45.0414ZM159.161 48.5405C158.884 48.6277 158.649 48.6506 158.458 48.6091C158.194 48.5719 157.945 48.2372 157.712 47.6078L157.657 47.4704C157.426 46.8711 157.523 46.2402 157.946 45.575H157.962C158 45.6966 158.03 45.8711 158.053 46.0971C158.091 46.2087 158.126 46.2588 158.156 46.2473C158.411 46.8954 159.04 47.4147 160.041 47.8066C159.992 47.9368 159.7 48.18 159.16 48.5405H159.161ZM160.839 46.7409L160.685 46.7795C160.118 46.9555 159.642 46.6694 159.255 45.924C158.988 45.2331 159.229 44.7753 159.982 44.5493C160.084 44.5121 160.148 44.525 160.173 44.5851C160.554 44.4721 160.904 44.7582 161.226 45.4463C161.269 45.8582 161.14 46.2903 160.841 46.7409H160.839ZM166.728 50.4374C165.756 51.443 164.926 51.9637 164.236 51.9995C163.964 52.0138 163.815 51.9594 163.787 51.8364L163.784 51.7749C163.761 51.3615 164.709 50.2957 166.627 48.5777L166.877 48.5648C166.975 48.8294 167.027 49.0125 167.033 49.1155L167.061 49.6119C166.836 50.1112 166.725 50.3859 166.728 50.4374Z" fill="url(#paint4_linear_25744_2855)"/>
<path d="M149.216 42.9672C149.205 42.9672 149.19 42.9672 149.168 42.9672C149.163 42.9672 149.158 42.97 149.153 42.97L149.216 42.9672Z" fill="url(#paint5_linear_25744_2855)"/>
<path d="M148.841 42.9571C148.997 42.9643 149.106 42.9686 149.169 42.9686C149.205 42.9629 149.24 42.9414 149.276 42.9028C149.317 42.8999 149.369 42.8885 149.43 42.8642C149.49 42.8413 149.563 42.827 149.645 42.8227C150.06 42.8012 150.513 42.9099 151.006 43.1517C151.498 43.3935 152.033 43.4979 152.615 43.4678C153.072 43.4435 153.308 43.2976 153.405 43.0559C153.459 42.9185 153.51 42.6582 153.507 42.6181C153.507 42.6024 153.507 42.5967 153.503 42.5881C153.497 42.5695 153.459 42.5595 153.377 42.5638C153.384 42.6868 153.306 42.8041 153.146 42.9157C152.985 43.0272 152.822 43.0873 152.655 43.0959C152.198 43.1202 151.68 42.9529 151.099 42.5924C150.517 42.2333 150.018 42.0631 149.603 42.0845C149.354 42.0974 149.109 42.1732 148.867 42.3091C148.625 42.445 148.508 42.5967 148.517 42.7597C148.524 42.8828 148.631 42.95 148.839 42.9586L148.841 42.9571Z" fill="url(#paint6_linear_25744_2855)"/>
<path d="M146.894 59.3495C147.202 59.3495 147.491 59.278 147.759 59.1349V59.9689C147.478 60.0676 147.191 60.1163 146.894 60.1163C146.177 60.1163 145.565 59.8645 145.057 59.3624C144.549 58.8603 144.295 58.2537 144.295 57.5456C144.295 56.8375 144.549 56.231 145.057 55.7289C145.565 55.2267 146.178 54.975 146.894 54.975C147.191 54.975 147.48 55.0236 147.759 55.1194V55.9577C147.491 55.8118 147.202 55.7389 146.894 55.7389C146.391 55.7389 145.961 55.9163 145.605 56.271C145.249 56.6229 145.071 57.0478 145.071 57.5456C145.071 58.0434 145.249 58.4683 145.605 58.8202C145.961 59.1721 146.391 59.3481 146.894 59.3481V59.3495Z" fill="url(#paint7_linear_25744_2855)"/>
<path d="M153.451 60.0676H152.579L151.465 57.9447H150.593V60.0676H149.82V55.0279H151.701C152.107 55.0279 152.453 55.171 152.741 55.4571C153.03 55.7417 153.175 56.0851 153.175 56.4885C153.175 56.7846 153.091 57.0549 152.921 57.2981C152.758 57.537 152.542 57.7144 152.276 57.826L153.451 60.0662V60.0676ZM151.699 57.1808C151.892 57.1808 152.056 57.1122 152.194 56.9763C152.33 56.8418 152.396 56.6802 152.396 56.4899C152.396 56.2996 152.328 56.1323 152.194 55.9964C152.056 55.8605 151.892 55.7918 151.699 55.7918H150.591V57.1794H151.699V57.1808Z" fill="url(#paint8_linear_25744_2855)"/>
<path d="M157.948 55.7932H156.121V57.1594H157.531V57.9233H156.121V59.3037H157.948V60.0676H155.349V55.0279H157.948V55.7932Z" fill="url(#paint9_linear_25744_2855)"/>
<path d="M162.4 59.3495C162.708 59.3495 162.997 59.278 163.265 59.1349V59.9689C162.984 60.0676 162.697 60.1163 162.4 60.1163C161.683 60.1163 161.071 59.8645 160.563 59.3624C160.055 58.8603 159.801 58.2537 159.801 57.5456C159.801 56.8375 160.055 56.231 160.563 55.7289C161.071 55.2267 161.684 54.975 162.4 54.975C162.697 54.975 162.986 55.0236 163.265 55.1194V55.9577C162.997 55.8118 162.708 55.7389 162.4 55.7389C161.897 55.7389 161.467 55.9163 161.111 56.271C160.755 56.6229 160.578 57.0478 160.578 57.5456C160.578 58.0434 160.755 58.4683 161.111 58.8202C161.467 59.1721 161.897 59.3481 162.4 59.3481V59.3495Z" fill="url(#paint10_linear_25744_2855)"/>
<path d="M166.145 60.0676H165.373V55.035H166.145V60.0676Z" fill="url(#paint11_linear_25744_2855)"/>
<path d="M171.047 55.7932H169.22V57.1594H170.63V57.9233H169.22V59.3037H171.047V60.0676H168.448V55.0279H171.047V55.7932Z" fill="url(#paint12_linear_25744_2855)"/>
<path d="M176.836 55.0293V60.0691H176.027L173.847 56.467V60.0691H173.075V55.0293H173.884L176.059 58.6314V55.0293H176.836Z" fill="url(#paint13_linear_25744_2855)"/>
<path d="M179.085 60.0676V55.0279H180.424C181.127 55.0279 181.728 55.2739 182.227 55.7675C182.723 56.261 182.972 56.8547 182.972 57.5499C182.972 58.2451 182.723 58.8359 182.227 59.328C181.728 59.8216 181.127 60.0676 180.424 60.0676H179.085ZM179.853 59.308H180.423C180.912 59.308 181.331 59.1349 181.68 58.7902C182.027 58.4468 182.199 58.0349 182.199 57.5499C182.199 57.065 182.026 56.6501 181.68 56.3068C181.331 55.962 180.912 55.7889 180.423 55.7889H179.853V59.308Z" fill="url(#paint14_linear_25744_2855)"/>
<path d="M185.564 59.3638C185.056 58.8617 184.801 58.2552 184.801 57.547C184.801 56.8389 185.056 56.2324 185.564 55.7303C186.071 55.2282 186.685 54.9764 187.401 54.9764C188.117 54.9764 188.73 55.2282 189.238 55.7303C189.745 56.2324 190 56.8389 190 57.547C190 58.2552 189.745 58.8617 189.238 59.3638C188.73 59.8659 188.117 60.1177 187.401 60.1177C186.685 60.1177 186.071 59.8659 185.564 59.3638ZM186.112 56.2724C185.756 56.6244 185.578 57.0492 185.578 57.547C185.578 58.0449 185.756 58.4697 186.112 58.8216C186.468 59.1735 186.897 59.3495 187.401 59.3495C187.904 59.3495 188.334 59.1735 188.689 58.8216C189.045 58.4697 189.223 58.0449 189.223 57.547C189.223 57.0492 189.045 56.6244 188.689 56.2724C188.334 55.9205 187.904 55.7446 187.401 55.7446C186.897 55.7446 186.468 55.9205 186.112 56.2724Z" fill="url(#paint15_linear_25744_2855)"/>
<path d="M146.124 65.0945C146.326 65.0945 146.515 65.0473 146.69 64.9543V65.4993C146.506 65.5637 146.318 65.5966 146.124 65.5966C145.656 65.5966 145.257 65.4321 144.924 65.1045C144.593 64.7769 144.426 64.3807 144.426 63.9172C144.426 63.4537 144.593 63.0588 144.924 62.7298C145.255 62.4008 145.656 62.2377 146.124 62.2377C146.318 62.2377 146.506 62.2692 146.69 62.3321V62.88C146.515 62.7856 146.327 62.737 146.124 62.737C145.796 62.737 145.516 62.8529 145.283 63.0846C145.05 63.3149 144.934 63.5924 144.934 63.9172C144.934 64.2419 145.05 64.5194 145.283 64.7497C145.516 64.98 145.796 65.0945 146.124 65.0945Z" fill="#0B2647"/>
<path d="M148.382 65.1031C148.051 64.7755 147.885 64.3792 147.885 63.9157C147.885 63.4522 148.051 63.0574 148.382 62.7284C148.714 62.4008 149.114 62.2363 149.583 62.2363C150.052 62.2363 150.451 62.4008 150.784 62.7284C151.115 63.056 151.281 63.4522 151.281 63.9157C151.281 64.3792 151.115 64.774 150.784 65.1031C150.452 65.4307 150.052 65.5952 149.583 65.5952C149.114 65.5952 148.715 65.4307 148.382 65.1031ZM148.741 63.0832C148.508 63.3135 148.393 63.591 148.393 63.9157C148.393 64.2405 148.508 64.518 148.741 64.7483C148.974 64.9786 149.255 65.093 149.583 65.093C149.911 65.093 150.192 64.9786 150.425 64.7483C150.658 64.518 150.773 64.2405 150.773 63.9157C150.773 63.591 150.658 63.3135 150.425 63.0832C150.192 62.8529 149.911 62.7384 149.583 62.7384C149.255 62.7384 148.974 62.8529 148.741 63.0832Z" fill="#0B2647"/>
<path d="M155.049 62.2721V65.5637H154.521L153.098 63.2105V65.5637H152.593V62.2721H153.121L154.543 64.6253V62.2721H155.051H155.049Z" fill="#0B2647"/>
<path d="M159.173 65.5637H158.668V62.2721H159.896C160.161 62.2721 160.388 62.365 160.576 62.5524C160.766 62.7384 160.86 62.963 160.86 63.2262C160.86 63.4894 160.766 63.7126 160.576 63.8986C160.388 64.0845 160.162 64.1775 159.896 64.1775H159.173V65.5651V65.5637ZM159.173 63.6768H159.896C160.022 63.6768 160.129 63.6325 160.22 63.5438C160.308 63.4565 160.353 63.3507 160.353 63.2262C160.353 63.1018 160.308 62.993 160.22 62.9044C160.131 62.8157 160.022 62.7713 159.896 62.7713H159.173V63.6783V63.6768Z" fill="#0B2647"/>
<path d="M163.997 65.5637L163.269 64.1761H162.699V65.5637H162.195V62.2721H163.423C163.687 62.2721 163.915 62.365 164.103 62.5524C164.292 62.7384 164.386 62.963 164.386 63.2262C164.386 63.4193 164.331 63.5953 164.221 63.7555C164.114 63.9114 163.974 64.0273 163.8 64.1003L164.568 65.5637H163.997ZM163.421 63.6768C163.547 63.6768 163.654 63.6325 163.745 63.5438C163.834 63.4565 163.878 63.3507 163.878 63.2262C163.878 63.1018 163.834 62.993 163.745 62.9044C163.656 62.8157 163.547 62.7713 163.421 62.7713H162.698V63.6783H163.421V63.6768Z" fill="#0B2647"/>
<path d="M166.126 65.1031C165.795 64.7755 165.629 64.3792 165.629 63.9157C165.629 63.4522 165.795 63.0574 166.126 62.7284C166.457 62.4008 166.858 62.2363 167.327 62.2363C167.795 62.2363 168.195 62.4008 168.527 62.7284C168.859 63.056 169.025 63.4522 169.025 63.9157C169.025 64.3792 168.859 64.774 168.527 65.1031C168.196 65.4307 167.795 65.5952 167.327 65.5952C166.858 65.5952 166.459 65.4307 166.126 65.1031ZM166.485 63.0832C166.252 63.3135 166.136 63.591 166.136 63.9157C166.136 64.2405 166.252 64.518 166.485 64.7483C166.718 64.9786 166.998 65.093 167.327 65.093C167.655 65.093 167.936 64.9786 168.169 64.7483C168.401 64.518 168.517 64.2405 168.517 63.9157C168.517 63.591 168.401 63.3135 168.169 63.0832C167.936 62.8529 167.655 62.7384 167.327 62.7384C166.998 62.7384 166.718 62.8529 166.485 63.0832Z" fill="#0B2647"/>
<path d="M170.881 65.5637H170.376V62.2721H171.604C171.869 62.2721 172.096 62.365 172.284 62.5524C172.473 62.7384 172.567 62.963 172.567 63.2262C172.567 63.4894 172.473 63.7126 172.284 63.8986C172.096 64.0845 171.87 64.1775 171.604 64.1775H170.881V65.5651V65.5637ZM170.881 63.6768H171.604C171.73 63.6768 171.837 63.6325 171.928 63.5438C172.016 63.4565 172.061 63.3507 172.061 63.2262C172.061 63.1018 172.016 62.993 171.928 62.9044C171.838 62.8157 171.73 62.7713 171.604 62.7713H170.881V63.6783V63.6768Z" fill="#0B2647"/>
<path d="M174.247 65.1031C173.915 64.7755 173.749 64.3792 173.749 63.9157C173.749 63.4522 173.915 63.0574 174.247 62.7284C174.578 62.3994 174.978 62.2363 175.447 62.2363C175.916 62.2363 176.315 62.4008 176.648 62.7284C176.979 63.056 177.145 63.4522 177.145 63.9157C177.145 64.3792 176.979 64.774 176.648 65.1031C176.316 65.4307 175.916 65.5952 175.447 65.5952C174.978 65.5952 174.579 65.4307 174.247 65.1031ZM174.605 63.0832C174.372 63.3135 174.257 63.591 174.257 63.9157C174.257 64.2405 174.372 64.518 174.605 64.7483C174.838 64.9786 175.119 65.093 175.447 65.093C175.775 65.093 176.056 64.9786 176.289 64.7483C176.522 64.518 176.638 64.2405 176.638 63.9157C176.638 63.591 176.522 63.3135 176.289 63.0832C176.056 62.8529 175.775 62.7384 175.447 62.7384C175.119 62.7384 174.838 62.8529 174.605 63.0832ZM175.715 61.5911L175.482 62.0747H175.18V61.5911H175.715Z" fill="#0B2647"/>
<path d="M179.376 65.5937C179.156 65.5851 178.952 65.5265 178.767 65.4192C178.556 65.2976 178.412 65.136 178.336 64.9314L178.81 64.7583C178.849 64.8599 178.929 64.9414 179.05 65.0044C179.157 65.0587 179.273 65.0873 179.399 65.0945C179.593 65.1016 179.753 65.0559 179.881 64.9543C179.988 64.8685 180.044 64.7698 180.05 64.6596C180.058 64.4493 179.837 64.2819 179.382 64.1561C178.67 63.9586 178.324 63.6225 178.346 63.1504C178.36 62.8185 178.504 62.571 178.775 62.408C178.984 62.2821 179.233 62.2263 179.525 62.2406C179.878 62.2563 180.163 62.3779 180.377 62.6068L180.006 62.9473C179.885 62.8185 179.717 62.7499 179.502 62.7398C179.35 62.7341 179.22 62.7527 179.112 62.7971C178.945 62.8672 178.858 62.993 178.849 63.1747C178.841 63.3821 179.062 63.5481 179.517 63.674C179.927 63.787 180.216 63.9543 180.387 64.1761C180.504 64.3291 180.559 64.4994 180.552 64.6839C180.539 64.9443 180.42 65.166 180.193 65.3463C179.982 65.5136 179.729 65.5966 179.435 65.5966C179.413 65.5966 179.393 65.5966 179.373 65.5937H179.376Z" fill="#0B2647"/>
<path d="M182.419 65.5637H181.914V62.2764H182.419V65.5637Z" fill="#0B2647"/>
<path d="M185.724 62.2721V62.7713H185.02V65.5637H184.512V62.7713H183.808V62.2721H185.724Z" fill="#0B2647"/>
<path d="M187.085 65.1031C186.754 64.7755 186.588 64.3792 186.588 63.9157C186.588 63.4522 186.754 63.0574 187.085 62.7284C187.417 62.3994 187.817 62.2363 188.286 62.2363C188.755 62.2363 189.154 62.4008 189.486 62.7284C189.818 63.056 189.984 63.4522 189.984 63.9157C189.984 64.3792 189.818 64.774 189.486 65.1031C189.155 65.4307 188.755 65.5952 188.286 65.5952C187.817 65.5952 187.418 65.4307 187.085 65.1031ZM187.444 63.0832C187.211 63.3135 187.095 63.591 187.095 63.9157C187.095 64.2405 187.211 64.518 187.444 64.7483C187.677 64.9786 187.958 65.093 188.286 65.093C188.614 65.093 188.895 64.9786 189.128 64.7483C189.361 64.518 189.476 64.2405 189.476 63.9157C189.476 63.591 189.361 63.3135 189.128 63.0832C188.895 62.8529 188.614 62.7384 188.286 62.7384C187.958 62.7384 187.677 62.8529 187.444 63.0832Z" fill="#0B2647"/>
<defs>
<linearGradient id="paint0_linear_25744_2855" x1="183.07" y1="58.052" x2="14.9081" y2="-28.844" gradientUnits="userSpaceOnUse">
<stop stop-color="#292561"/>
<stop offset="0.48" stop-color="#EA088B"/>
<stop offset="1" stop-color="#F79420"/>
</linearGradient>
<linearGradient id="paint1_linear_25744_2855" x1="95.0031" y1="71.7879" x2="95.0031" y2="5.7846" gradientUnits="userSpaceOnUse">
<stop stop-color="#292561"/>
<stop offset="0.24" stop-color="#EA088B"/>
<stop offset="0.5" stop-color="#F79420"/>
<stop offset="0.52" stop-color="#E19C39"/>
<stop offset="0.56" stop-color="#BFA963"/>
<stop offset="0.59" stop-color="#A3B585"/>
<stop offset="0.63" stop-color="#8DBDA0"/>
<stop offset="0.67" stop-color="#7DC4B2"/>
<stop offset="0.71" stop-color="#74C7BE"/>
<stop offset="0.75" stop-color="#71C9C2"/>
<stop offset="1" stop-color="#293B8F"/>
</linearGradient>
<linearGradient id="paint2_linear_25744_2855" x1="148.961" y1="80.6916" x2="137.795" y2="-8.31116" gradientUnits="userSpaceOnUse">
<stop stop-color="#292561"/>
<stop offset="0.24" stop-color="#EA088B"/>
<stop offset="0.46" stop-color="#F79420"/>
<stop offset="0.48" stop-color="#E39B37"/>
<stop offset="0.51" stop-color="#C1A961"/>
<stop offset="0.55" stop-color="#A4B484"/>
<stop offset="0.59" stop-color="#8DBD9F"/>
<stop offset="0.63" stop-color="#7DC3B2"/>
<stop offset="0.67" stop-color="#74C7BE"/>
<stop offset="0.71" stop-color="#71C9C2"/>
<stop offset="1" stop-color="#293B8F"/>
</linearGradient>
<linearGradient id="paint3_linear_25744_2855" x1="0.00675613" y1="33.0026" x2="190.01" y2="33.0026" gradientUnits="userSpaceOnUse">
<stop stop-color="#2D2C80"/>
<stop offset="1" stop-color="#EA088B"/>
</linearGradient>
<linearGradient id="paint4_linear_25744_2855" x1="-0.0202149" y1="33" x2="190" y2="33" gradientUnits="userSpaceOnUse">
<stop stop-color="#2D2C80"/>
<stop offset="1" stop-color="#EA088B"/>
</linearGradient>
<linearGradient id="paint5_linear_25744_2855" x1="0" y1="66" x2="190" y2="66" gradientUnits="userSpaceOnUse">
<stop stop-color="#2D2C80"/>
<stop offset="1" stop-color="#EA088B"/>
</linearGradient>
<linearGradient id="paint6_linear_25744_2855" x1="0.0170918" y1="32.8894" x2="189.995" y2="32.8894" gradientUnits="userSpaceOnUse">
<stop stop-color="#2D2C80"/>
<stop offset="1" stop-color="#EA088B"/>
</linearGradient>
<linearGradient id="paint7_linear_25744_2855" x1="94.9603" y1="66.0184" x2="94.9603" y2="0.0183635" gradientUnits="userSpaceOnUse">
<stop stop-color="#71C9C2"/>
<stop offset="0.6" stop-color="#4470A2"/>
<stop offset="1" stop-color="#293B8F"/>
</linearGradient>
<linearGradient id="paint8_linear_25744_2855" x1="95" y1="66" x2="95" y2="0.0187358" gradientUnits="userSpaceOnUse">
<stop stop-color="#71C9C2"/>
<stop offset="0.6" stop-color="#4470A2"/>
<stop offset="1" stop-color="#293B8F"/>
</linearGradient>
<linearGradient id="paint9_linear_25744_2855" x1="94.9471" y1="66" x2="94.9471" y2="0.0187358" gradientUnits="userSpaceOnUse">
<stop stop-color="#71C9C2"/>
<stop offset="0.6" stop-color="#4470A2"/>
<stop offset="1" stop-color="#293B8F"/>
</linearGradient>
<linearGradient id="paint10_linear_25744_2855" x1="95.0397" y1="-705.708" x2="95.0397" y2="-705.708" gradientUnits="userSpaceOnUse">
<stop stop-color="#71C9C2"/>
<stop offset="0.6" stop-color="#4470A2"/>
<stop offset="1" stop-color="#293B8F"/>
</linearGradient>
<linearGradient id="paint11_linear_25744_2855" x1="95" y1="66" x2="95" y2="0.0187594" gradientUnits="userSpaceOnUse">
<stop stop-color="#71C9C2"/>
<stop offset="0.6" stop-color="#4470A2"/>
<stop offset="1" stop-color="#293B8F"/>
</linearGradient>
<linearGradient id="paint12_linear_25744_2855" x1="94.9471" y1="66" x2="94.9471" y2="0.0187358" gradientUnits="userSpaceOnUse">
<stop stop-color="#71C9C2"/>
<stop offset="0.6" stop-color="#4470A2"/>
<stop offset="1" stop-color="#293B8F"/>
</linearGradient>
<linearGradient id="paint13_linear_25744_2855" x1="95" y1="65.9813" x2="95" y2="0" gradientUnits="userSpaceOnUse">
<stop stop-color="#71C9C2"/>
<stop offset="0.6" stop-color="#4470A2"/>
<stop offset="1" stop-color="#293B8F"/>
</linearGradient>
<linearGradient id="paint14_linear_25744_2855" x1="94.8939" y1="66" x2="94.8939" y2="0.0187358" gradientUnits="userSpaceOnUse">
<stop stop-color="#71C9C2"/>
<stop offset="0.6" stop-color="#4470A2"/>
<stop offset="1" stop-color="#293B8F"/>
</linearGradient>
<linearGradient id="paint15_linear_25744_2855" x1="95" y1="-705.726" x2="95" y2="-705.726" gradientUnits="userSpaceOnUse">
<stop stop-color="#71C9C2"/>
<stop offset="0.6" stop-color="#4470A2"/>
<stop offset="1" stop-color="#293B8F"/>
</linearGradient>
</defs>
</svg>
