<svg width="138" height="35" viewBox="0 0 138 35" fill="none" xmlns="http://www.w3.org/2000/svg">
<path d="M37.0857 24.0685C37.8899 24.8712 38.9009 25.2725 40.1218 25.2725C41.3412 25.2725 42.3476 24.8712 43.1411 24.0685C43.9331 23.2642 44.3299 22.2333 44.3299 20.9726C44.3299 19.7118 43.9331 18.6794 43.1411 17.8767C42.3476 17.074 41.3412 16.6711 40.1218 16.6711C38.9009 16.6711 37.8899 17.074 37.0857 17.8767C36.283 18.6794 35.8816 19.7118 35.8816 20.9726C35.8816 22.2333 36.283 23.2642 37.0857 24.0685ZM44.3299 7.24707H48.2652V28.5966H44.3299V26.7982C43.1718 28.2826 41.5235 29.024 39.3896 29.024C37.3354 29.024 35.5814 28.2458 34.1277 26.691C32.6739 25.1346 31.9463 23.229 31.9463 20.9726C31.9463 18.7146 32.6739 16.809 34.1277 15.2526C35.5814 13.6977 37.3354 12.9196 39.3896 12.9196C41.5235 12.9196 43.1718 13.6625 44.3299 15.1469V7.24707Z" fill="black"/>
<path d="M51.5586 13.347H55.4924V28.5966H51.5586V13.347ZM53.5102 11.5164C52.8592 11.5164 52.2954 11.2774 51.8175 10.7995C51.3396 10.3231 51.1006 9.7578 51.1006 9.10676C51.1006 8.45725 51.3396 7.8874 51.8175 7.39873C52.2954 6.9116 52.8592 6.6665 53.5102 6.6665C54.1812 6.6665 54.7556 6.9116 55.2335 7.39873C55.7115 7.8874 55.9505 8.45725 55.9505 9.10676C55.9505 9.7578 55.7115 10.3231 55.2335 10.7995C54.7556 11.2774 54.1812 11.5164 53.5102 11.5164Z" fill="black"/>
<path d="M67.2665 12.9199C68.9331 12.9199 70.3103 13.4791 71.3994 14.5973C72.487 15.7156 73.0309 17.2612 73.0309 19.2343V28.597H69.097V19.7214C69.097 18.7058 68.8213 17.9276 68.2729 17.3884C67.7245 16.8507 66.9923 16.5795 66.0762 16.5795C65.059 16.5795 64.2472 16.8966 63.6375 17.5262C63.0263 18.1558 62.7214 19.1025 62.7214 20.3617V28.597H58.7876V13.3473H62.7214V15.0553C63.6773 13.6322 65.1923 12.9199 67.2665 12.9199Z" fill="black"/>
<path d="M79.344 19.5391H87.1228C86.8976 18.502 86.4365 17.73 85.7349 17.2214C85.0333 16.7128 84.2352 16.4585 83.3406 16.4585C82.2821 16.4585 81.4074 16.7281 80.7165 17.2673C80.0257 17.805 79.5676 18.5633 79.344 19.5391ZM79.4052 22.589C79.9337 24.5008 81.3676 25.4552 83.7067 25.4552C85.211 25.4552 86.3492 24.9481 87.1228 23.931L90.2937 25.7615C88.7894 27.9368 86.5728 29.0244 83.6454 29.0244C81.124 29.0244 79.1004 28.2615 77.5762 26.7373C76.0505 25.2116 75.2876 23.2906 75.2876 20.9729C75.2876 18.6751 76.0397 16.7588 77.5456 15.2238C79.0499 13.6874 80.9815 12.9199 83.3406 12.9199C85.5771 12.9199 87.4215 13.6935 88.8752 15.2392C90.329 16.7833 91.0566 18.695 91.0566 20.9729C91.0566 21.4815 91.0061 22.0207 90.9034 22.589H79.4052Z" fill="black"/>
<path d="M93.4966 6.33252H97.4304V28.5966H93.4966V6.33252Z" fill="black"/>
<path d="M107.984 29.0244C105.686 29.0244 103.769 28.2523 102.235 26.7067C100.7 25.161 99.9321 23.2493 99.9321 20.9729C99.9321 18.695 100.7 16.7833 102.235 15.2376C103.769 13.6935 105.686 12.9199 107.984 12.9199C109.468 12.9199 110.821 13.2768 112.04 13.9876C113.261 14.6999 114.186 15.6558 114.816 16.8553L111.43 18.8375C111.125 18.2079 110.663 17.7085 110.042 17.3424C109.422 16.9763 108.727 16.794 107.953 16.794C106.773 16.794 105.798 17.1862 105.026 17.9674C104.254 18.7517 103.866 19.752 103.866 20.9729C103.866 22.1724 104.254 23.1635 105.026 23.9463C105.798 24.7291 106.773 25.1212 107.953 25.1212C108.746 25.1212 109.453 24.9435 110.073 24.5866C110.693 24.2312 111.156 23.7379 111.461 23.1068L114.877 25.0599C114.206 26.2594 113.261 27.2199 112.04 27.9414C110.821 28.6629 109.468 29.0244 107.984 29.0244Z" fill="black"/>
<path d="M120.718 23.9922C121.5 24.7842 122.481 25.1809 123.66 25.1809C124.84 25.1809 125.826 24.7842 126.62 23.9922C127.413 23.1987 127.809 22.1923 127.809 20.9729C127.809 19.752 127.413 18.7456 126.62 17.9521C125.826 17.1601 124.84 16.7634 123.66 16.7634C122.481 16.7634 121.5 17.1601 120.718 17.9521C119.935 18.7456 119.543 19.752 119.543 20.9729C119.543 22.1923 119.935 23.1987 120.718 23.9922ZM129.396 26.6914C127.829 28.2462 125.918 29.0244 123.66 29.0244C121.404 29.0244 119.498 28.2462 117.942 26.6914C116.387 25.135 115.609 23.2294 115.609 20.9729C115.609 18.715 116.387 16.8093 117.942 15.2529C119.498 13.6981 121.404 12.9199 123.66 12.9199C125.918 12.9199 127.829 13.6981 129.396 15.2529C130.961 16.8093 131.744 18.715 131.744 20.9729C131.744 23.2294 130.961 25.135 129.396 26.6914Z" fill="black"/>
<path d="M137.112 28.2306C136.603 28.7392 135.994 28.9935 135.281 28.9935C134.571 28.9935 133.959 28.7392 133.452 28.2306C132.944 27.7235 132.689 27.1139 132.689 26.4015C132.689 25.6892 132.944 25.0796 133.452 24.571C133.959 24.0624 134.571 23.8081 135.281 23.8081C135.994 23.8081 136.603 24.0624 137.112 24.571C137.621 25.0796 137.875 25.6892 137.875 26.4015C137.875 27.1139 137.621 27.7235 137.112 28.2306Z" fill="#713B9A"/>
<path d="M14.4556 35C10.7117 35 7.15471 33.5815 4.44178 31.0049C1.70894 28.4099 0.134184 24.9234 0.00857138 21.1872C-0.124701 17.2702 1.29993 13.5646 4.01899 10.7521C6.73958 7.93811 10.3931 6.3894 14.3054 6.3894V10.3278C11.47 10.3278 8.82291 11.4507 6.8514 13.4896C4.88143 15.5285 3.84895 18.2138 3.94393 21.0555C4.03584 23.75 5.17554 26.2699 7.15318 28.1495C9.13235 30.0276 11.7243 31.0616 14.4556 31.0616C20.0928 31.0616 24.6808 26.4752 24.6808 20.8364V3.93842H21.5864C21.136 3.93842 20.7132 4.11305 20.3946 4.43168C20.0775 4.75031 19.9029 5.1731 19.9029 5.62347L19.9197 20.7016C19.9197 22.2457 19.2748 23.7362 18.1504 24.7932C17.0107 25.864 15.5202 26.4017 13.9547 26.3036C11.1391 26.129 8.88418 23.8741 8.70955 21.0585C8.61304 19.493 9.1492 18.0025 10.2215 16.8627C11.277 15.7384 12.7675 15.0934 14.3085 15.0934V19.0319C13.8428 19.0319 13.4108 19.2203 13.0907 19.5604C12.7721 19.8989 12.6112 20.3447 12.6403 20.8134C12.6924 21.6376 13.3771 22.3208 14.1997 22.3729C14.6685 22.402 15.1143 22.2411 15.4528 21.9225C15.7929 21.6039 15.9813 21.1703 15.9813 20.7047L15.9645 5.62806C15.9629 4.12531 16.5466 2.7114 17.6081 1.64828C18.6713 0.585171 20.0836 0 21.5864 0H28.6192V20.8364C28.6192 28.6458 22.265 35 14.4556 35Z" fill="#8754B6"/>
</svg>
